<?xml version="1.0" encoding="UTF-8"?>
<svg viewBox="0 0 148 36" xmlns="http://www.w3.org/2000/svg" xmlns:xlink="http://www.w3.org/1999/xlink">
<defs>
<path id="h" d="M0 .223h25.347V33.08H0z"/>
<path id="f" d="M.569.039h25.347v32.858H.57z"/>
</defs>
<g fill="none" fill-rule="evenodd">
<g transform="translate(0 .398)">
<mask id="g" fill="#fff">
<use xlink:href="#h"/>
</mask>
<path d="M13.565 21.84a5.705 5.705 0 0 1 0-8.08L25.347 2.004C18.777-1.202 10.62-.08 5.159 5.37c-6.879 6.865-6.879 17.995 0 24.86a17.586 17.586 0 0 0 3.737 2.849l9.663-9.644a5.724 5.724 0 0 1-4.994-1.596" fill="#FEFEFE" mask="url(#g)"/>
</g>
<g transform="translate(9.31 2.88)">
<mask id="e" fill="#fff">
<use xlink:href="#f"/>
</mask>
<path d="M20.757 2.888A17.651 17.651 0 0 0 17.02.038L7.357 9.685a5.724 5.724 0 0 1 4.994 1.595 5.705 5.705 0 0 1 0 8.079L.569 31.117c6.572 3.205 14.727 2.082 20.188-3.369 6.879-6.865 6.879-17.994 0-24.86" fill="#FEFEFE" mask="url(#e)"/>
</g>
<path d="M48.631 15.698c-.639-.53-1.455-.886-2.306-.886-.64 0-1.49.373-1.49 1.116 0 .78.94 1.08 1.543 1.275l.887.266c1.863.549 3.3 1.487 3.3 3.647 0 1.328-.32 2.69-1.384 3.595-1.046.885-2.448 1.256-3.796 1.256-1.686 0-3.336-.566-4.702-1.522l1.49-2.798c.87.762 1.899 1.381 3.087 1.381.816 0 1.686-.407 1.686-1.345 0-.974-1.366-1.31-2.112-1.523-2.181-.62-3.618-1.187-3.618-3.772 0-2.708 1.933-4.479 4.612-4.479 1.348 0 2.998.425 4.187 1.098l-1.384 2.691zM57.116 25.613H53.64v-10.41h-2.873v-2.94h9.225v2.94h-2.875zM65.702 16.389h-.036l-1.436 4.25h2.89l-1.418-4.25zm-2.43 6.905l-.923 2.32h-3.69l5.144-13.35H67.6l5.038 13.35h-3.707l-.87-2.32h-4.79zM70.084 12.263h4.169l2.501 3.63 2.502-3.63h4.169l-4.932 6.941v6.41h-3.477v-6.41zM96.228 18.16c-.036 1.947-.177 3.61-1.366 5.276-1.312 1.823-3.281 2.62-5.517 2.62-4.205 0-7.132-2.85-7.132-7.047 0-4.338 2.945-7.188 7.256-7.188 2.75 0 4.88 1.24 6.032 3.736l-3.3 1.38c-.479-1.274-1.49-2.125-2.891-2.125-2.289 0-3.478 2.178-3.478 4.215 0 2.071 1.242 4.178 3.53 4.178 1.509 0 2.662-.779 2.804-2.319h-2.838V18.16h6.9zM101.003 15.202v2.232h3.92v2.939h-3.92v2.301h4.133v2.94h-7.61v-13.35h7.61v2.938zM118.89 23.813c2.31 0 4.582-1.633 4.582-4.919 0-3.286-2.272-4.919-4.582-4.919-2.291 0-4.563 1.633-4.563 4.92 0 3.285 2.272 4.918 4.563 4.918m0-12.009c3.58 0 6.949 2.633 6.949 7.09 0 4.477-3.369 7.108-6.95 7.108-3.58 0-6.93-2.631-6.93-7.108 0-4.457 3.35-7.09 6.93-7.09M129.978 25.715h-2.233v-9.357h2.176v1.249c.615-1.076 1.732-1.518 2.772-1.518 2.29 0 3.388 1.652 3.388 3.708v5.918h-2.233V20.18c0-1.152-.52-2.075-1.925-2.075-1.271 0-1.945.98-1.945 2.21v5.399zM144.609 20.008c-.039-1.095-.77-2.075-2.31-2.075-1.406 0-2.214 1.077-2.29 2.075h4.6zm2.136 3.036c-.5 1.633-1.982 2.958-4.235 2.958-2.54 0-4.793-1.843-4.793-5.014 0-2.958 2.195-4.918 4.562-4.918 2.888 0 4.582 1.902 4.582 4.86 0 .366-.039.673-.057.711h-6.854c.058 1.422 1.175 2.44 2.56 2.44 1.348 0 2.041-.71 2.349-1.633l1.886.596z" fill="#FEFEFE"/>
</g>
</svg>
