<?xml version="1.0" encoding="UTF-8"?>
<svg viewBox="0 0 230 50" xmlns="http://www.w3.org/2000/svg" xmlns:xlink="http://www.w3.org/1999/xlink">
<defs>
<path id="h" d="M.06.268h48.581v49.441H.061z"/>
<path id="f" d="M.231.06h26.38v46.368H.232z"/>
</defs>
<g fill="none" fill-rule="evenodd">
<path d="M30.467 13.758c-2.214-1.845-5.043-3.075-7.995-3.075-2.214 0-5.166 1.292-5.166 3.874 0 2.706 3.26 3.752 5.35 4.428l3.075.922c6.457 1.907 11.438 5.166 11.438 12.668 0 4.613-1.107 9.347-4.796 12.484-3.628 3.075-8.487 4.366-13.16 4.366-5.842 0-11.561-1.968-16.296-5.289l5.166-9.716c3.013 2.644 6.58 4.797 10.7 4.797 2.828 0 5.841-1.415 5.841-4.674 0-3.382-4.735-4.55-7.318-5.289-7.563-2.152-12.544-4.12-12.544-13.098C4.762 6.747 11.465.598 20.75.598c4.674 0 10.393 1.476 14.513 3.813l-4.796 9.347zM59.88 48.195H47.828V12.036h-9.963V1.828h31.977v10.208H59.88zM89.638 16.156h-.123l-4.98 14.759h10.023l-4.92-14.759zM81.214 40.14l-3.198 8.056H65.225L83.058 1.828h13.16l17.464 46.367H100.83l-3.013-8.056H81.214zM104.828 1.828h14.451l8.671 12.606 8.67-12.606h14.452l-17.096 24.106v22.26h-12.053v-22.26z" fill="#FEFEFE"/>
<g transform="translate(146.81 .023)">
<mask id="g" fill="#fff">
<use xlink:href="#h"/>
</mask>
<path d="M48.641 22.283c-.123 6.765-.615 12.545-4.735 18.325-4.55 6.334-11.376 9.102-19.125 9.102-14.574 0-24.72-9.901-24.72-24.475C.06 10.168 10.269.268 25.21.268c9.532 0 16.912 4.304 20.909 12.975l-11.438 4.796c-1.66-4.427-5.166-7.379-10.024-7.379-7.933 0-12.053 7.564-12.053 14.636 0 7.195 4.305 14.513 12.238 14.513 5.226 0 9.223-2.706 9.716-8.056h-9.84v-9.47h23.922z" fill="#FEFEFE" mask="url(#g)"/>
</g>
<g transform="translate(199.72 1.767)">
<mask id="e" fill="#fff">
<use xlink:href="#f"/>
</mask>
<path d="M12.284 10.27v7.747h13.59v10.209h-13.59v7.994h14.328v10.208H.232V.06h26.38v10.208z" fill="#FEFEFE" mask="url(#e)"/>
</g>
</g>
</svg>